<svg xmlns="http://www.w3.org/2000/svg" viewBox="0 0 64 64" width="64" height="64"><g fill="#33a6ff"><path d="M40.446 38.433c-1.07-.702-1.122-1.99-1.125-2.048-.006-.35-.29-.626-.64-.62-.347.01-.625.296-.618.644.003.046.02.65.308 1.364-3.806 3.628-9.784 3.633-13.598.022.295-.724.314-1.34.314-1.385.006-.347-.27-.635-.615-.644-.34-.01-.63.27-.643.62 0 .05-.05 1.345-1.123 2.047-.29.194-.373.587-.182.88.12.185.32.286.528.286.117 0 .236-.034.342-.104.275-.18.506-.387.7-.605 2.117 1.92 4.793 2.88 7.47 2.88 2.68 0 5.363-.964 7.485-2.892.195.222.427.433.71.62.105.068.226.102.344.102.205 0 .407-.103.528-.29.19-.293.108-.688-.182-.88z"/><path d="M64 39.46c0-8.897-6.79-16.227-15.424-17.006-.464-3.835-2.193-7.38-4.97-10.12-3.185-3.14-7.396-4.867-11.85-4.867-4.458 0-8.667 1.727-11.852 4.868-2.79 2.75-4.524 6.316-4.976 10.172-3.827.454-7.364 2.202-10.095 5.012C1.715 30.727 0 34.97 0 39.46c0 9.414 7.6 17.073 16.946 17.073h30.106C56.395 56.533 64 48.873 64 39.46zM47.242 53.332H16.757c-7.476 0-13.558-6.16-13.558-13.736 0-7.403 5.94-13.563 13.24-13.734.963-.022 1.736-.806 1.758-1.78.167-7.397 6.25-13.415 13.556-13.415 7.305 0 13.385 6.016 13.553 13.413.022.992.822 1.778 1.798 1.778h.138c7.475 0 13.557 6.163 13.557 13.737 0 7.575-6.082 13.737-13.558 13.737z"/></g></svg>
